<?xml version="1.0" standalone="no"?>
<!DOCTYPE svg PUBLIC "-//W3C//DTD SVG 20010904//EN"
 "http://www.w3.org/TR/2001/REC-SVG-20010904/DTD/svg10.dtd">
<svg version="1.0" xmlns="http://www.w3.org/2000/svg"
 width="600.000000pt" height="600.000000pt" viewBox="0 0 600.000000 600.000000"
 preserveAspectRatio="xMidYMid meet">
<metadata>
Created by potrace 1.11, written by Peter Selinger 2001-2013
</metadata>
<g transform="translate(0.000000,600.000000) scale(0.100000,-0.100000)"
fill="#000000" stroke="none">
<path d="M1556 4148 c-25 -7 -57 -28 -86 -57 -86 -86 -93 -211 -17 -298 43
-49 99 -73 170 -73 55 0 117 20 117 39 0 17 -14 19 -41 6 -79 -42 -199 -2
-238 78 -40 83 -23 176 42 234 68 60 145 66 218 18 20 -13 41 -20 48 -16 21
13 -43 58 -99 70 -58 13 -61 13 -114 -1z"/>
<path d="M1838 3900 c-30 -183 -33 -239 -12 -217 2 2 11 42 20 88 12 65 21 89
40 107 31 27 68 28 94 2 23 -23 24 -47 6 -148 -12 -65 -7 -97 11 -78 8 8 32
144 32 187 1 63 -73 105 -131 75 -16 -8 -28 -12 -28 -8 0 4 7 45 15 92 18 104
18 110 2 110 -10 0 -24 -58 -49 -210z"/>
<path d="M2187 4003 c-10 -10 -8 -63 2 -63 11 0 21 25 21 51 0 19 -11 25 -23
12z"/>
<path d="M5523 3942 c-93 -33 -158 -98 -194 -192 -10 -27 -19 -64 -19 -80 l0
-30 -481 -2 -482 -3 184 -190 c102 -104 237 -245 302 -312 l117 -122 0 -270 0
-271 -27 -6 c-80 -18 -145 -40 -203 -68 l-65 -31 173 -3 c94 -1 250 -1 345 0
l172 3 -40 21 c-42 22 -176 68 -232 79 l-33 7 0 268 0 268 190 195 190 195 56
-30 c138 -75 315 -33 403 96 109 158 55 374 -114 457 -82 40 -167 48 -242 21z
m146 -38 c6 -5 -36 -183 -48 -202 -5 -9 -24 15 -59 76 -29 49 -52 94 -52 100
0 19 73 42 115 36 21 -2 41 -7 44 -10z m111 -38 c33 -22 69 -71 59 -80 -13
-11 -184 -105 -187 -102 -1 2 9 49 24 105 31 114 40 121 104 77z m-243 -101
c28 -49 50 -91 49 -93 -4 -3 -195 47 -208 55 -25 14 67 140 95 130 6 -2 35
-44 64 -92z m340 -31 c18 -29 23 -118 7 -134 -9 -9 -214 39 -214 50 0 6 171
108 182 109 4 1 15 -11 25 -25z m-405 -64 c39 -11 73 -22 76 -25 3 -3 -40 -5
-96 -5 -100 0 -108 3 -96 34 8 21 29 20 116 -4z m301 -80 c49 -13 91 -30 94
-37 13 -33 -55 -123 -92 -123 -11 0 -115 166 -115 185 0 4 6 5 13 3 6 -3 52
-16 100 -28z m-120 -22 c9 -18 32 -61 52 -95 l36 -63 -33 -20 c-37 -23 -96
-26 -121 -7 -15 11 -14 20 11 114 15 57 30 103 33 103 3 0 13 -15 22 -32z
m-224 -66 c-41 -43 -83 -82 -94 -85 -11 -4 -168 -7 -349 -7 l-328 0 -79 77
c-44 42 -79 80 -79 85 0 4 226 8 502 8 l502 0 -75 -78z m137 -19 c-24 -87 -43
-100 -93 -68 l-25 17 63 64 c35 35 66 64 70 64 3 0 -3 -35 -15 -77z"/>
<path d="M2143 3760 c-17 -107 -16 -147 4 -126 6 5 43 208 43 234 0 6 -6 12
-13 12 -10 0 -20 -36 -34 -120z"/>
<path d="M2313 3841 c-83 -52 -85 -194 -3 -236 52 -27 140 -15 140 20 0 17
-16 20 -25 5 -3 -5 -26 -10 -50 -10 -36 0 -48 5 -69 31 -44 52 -24 156 34 174
29 9 85 -2 100 -20 15 -18 43 -20 38 -3 -8 22 -55 49 -94 54 -28 4 -48 -1 -71
-15z"/>
<path d="M2536 3719 c-15 -92 -15 -104 -1 -125 28 -43 80 -54 138 -29 13 5 16
4 11 -9 -4 -11 -1 -16 10 -16 17 0 19 6 41 135 18 110 18 115 2 115 -9 0 -18
-27 -26 -80 -19 -112 -55 -153 -114 -131 -43 16 -48 38 -32 137 18 108 18 104
2 104 -10 0 -19 -31 -31 -101z"/>
<path d="M2875 3758 c-2 -7 -11 -62 -21 -121 -12 -79 -14 -111 -6 -119 14 -14
17 -6 33 91 16 103 59 143 119 111 26 -14 39 9 15 27 -24 17 -53 17 -87 -1
-26 -14 -28 -13 -28 5 0 21 -18 26 -25 7z"/>
<path d="M3114 3716 c-96 -42 -109 -183 -22 -236 54 -33 158 -23 158 15 0 18
1 18 -45 0 -40 -17 -92 -8 -115 20 -15 18 -30 84 -21 89 3 2 40 -2 81 -9 121
-22 130 -21 130 18 0 49 -32 94 -77 106 -47 13 -51 13 -89 -3z m103 -36 c22
-20 39 -58 30 -66 -3 -3 -41 0 -86 7 -88 14 -98 24 -55 58 34 26 84 27 111 1z"/>
<path d="M3388 3664 c-48 -25 -77 -108 -58 -160 37 -97 159 -121 224 -43 74
88 15 220 -98 219 -23 -1 -53 -7 -68 -16z m138 -35 c64 -60 18 -189 -67 -189
-76 0 -120 63 -99 142 20 74 110 100 166 47z"/>
<path d="M1155 3578 c-151 -15 -285 -68 -413 -165 -245 -187 -368 -524 -240
-660 27 -29 80 -39 118 -23 34 14 38 35 12 63 -30 33 -22 161 18 281 75 223
217 389 379 441 81 26 200 18 269 -20 99 -54 171 -156 198 -284 25 -119 13
-335 -27 -496 l-10 -40 -147 -42 c-260 -73 -492 -165 -620 -246 -146 -93 -208
-210 -164 -309 35 -79 99 -108 244 -108 202 0 403 78 593 231 132 107 232 250
295 426 l22 62 132 31 c174 41 166 39 166 61 0 10 -2 19 -6 19 -3 0 -62 -13
-131 -30 -69 -16 -131 -30 -137 -30 -10 0 -9 14 1 63 8 34 17 125 20 202 8
220 -27 343 -128 450 -98 104 -240 144 -444 123z m264 -1010 c-29 -74 -101
-188 -161 -253 -111 -122 -315 -247 -467 -286 -112 -29 -184 -11 -215 55 -78
164 119 315 614 470 268 84 256 83 229 14z"/>
<path d="M3795 3577 c-12 -7 -19 -19 -17 -28 5 -27 -32 -124 -169 -447 -129
-302 -190 -417 -283 -534 -57 -71 -92 -96 -115 -81 -27 18 -17 63 47 199 88
190 111 279 93 357 -30 125 -146 115 -275 -23 l-46 -49 0 55 c0 45 -4 59 -25
80 -21 21 -33 25 -73 22 l-47 -3 -7 -47 c-9 -66 -93 -254 -161 -363 -101 -162
-177 -245 -212 -231 -31 12 -15 66 71 231 131 253 149 324 98 385 -24 28 -31
31 -77 28 l-51 -3 -2 -40 c-5 -102 -187 -442 -298 -557 -48 -51 -66 -57 -86
-33 -16 19 3 73 72 199 71 132 107 211 123 273 34 131 -42 201 -156 142 -27
-13 -55 -19 -82 -17 l-42 3 3 72 c3 66 2 74 -22 98 -28 28 -46 31 -79 13 -52
-27 -66 -83 -36 -145 11 -24 30 -48 40 -54 26 -13 24 -25 -17 -129 -20 -50
-33 -97 -30 -106 11 -28 31 1 76 104 l41 97 78 0 78 1 -34 -81 c-106 -242
-133 -327 -133 -410 0 -60 27 -116 62 -129 64 -23 143 27 234 147 l47 62 -7
-45 c-13 -94 28 -170 91 -170 51 0 84 22 161 106 l70 76 -8 -39 c-18 -76 21
-146 80 -146 39 0 41 2 44 58 2 35 23 86 84 208 65 130 95 179 154 246 99 114
139 145 174 137 24 -6 26 -10 20 -39 -4 -18 -33 -89 -66 -159 -56 -116 -100
-251 -100 -302 0 -40 22 -99 45 -122 58 -58 148 -10 263 141 l23 30 -8 -35
c-13 -59 -9 -107 12 -131 45 -50 105 -44 105 11 0 36 39 144 95 266 34 73 50
96 75 109 30 15 33 15 50 0 20 -18 58 -109 120 -290 81 -233 169 -384 250
-425 50 -25 106 -26 147 0 59 36 82 100 35 100 -55 0 -166 111 -265 265 -46
72 -229 397 -224 400 1 1 40 18 87 38 107 47 213 119 240 162 30 48 26 81 -14
121 -39 39 -52 42 -61 14 -9 -28 -105 -123 -225 -221 -130 -106 -133 -108
-120 -75 5 14 20 46 33 73 49 97 136 300 161 378 41 125 34 175 -29 201 -41
17 -54 17 -80 1z"/>
<path d="M2612 3336 c-34 -59 -39 -91 -19 -116 22 -29 61 -50 92 -50 27 1 33
6 58 63 22 49 26 68 19 88 -14 35 -45 59 -84 65 -34 6 -36 4 -66 -50z"/>
<path d="M1014 3352 c-6 -4 -14 -24 -17 -45 -3 -21 -29 -89 -58 -150 -106
-230 -161 -363 -176 -423 -14 -56 -14 -64 2 -97 33 -70 125 -67 125 3 0 43 32
118 120 280 93 170 129 255 137 321 8 64 -1 93 -32 107 -29 13 -84 16 -101 4z"/>
<path d="M4274 3246 c-32 -14 -64 -67 -64 -108 0 -12 7 -44 16 -69 l17 -46
-42 -77 c-23 -41 -39 -80 -36 -86 14 -22 33 -7 66 55 18 36 37 65 40 65 4 0
10 -8 14 -17 64 -158 80 -285 46 -375 -25 -66 -87 -128 -126 -128 -43 0 -75
41 -75 97 0 57 27 107 42 79 11 -19 39 -21 56 -4 20 20 14 48 -12 60 -29 13
-76 -10 -108 -53 -40 -54 -19 -168 38 -206 62 -40 196 1 302 93 91 78 250 298
238 329 -10 27 -24 16 -80 -67 -30 -46 -68 -98 -84 -116 l-28 -34 4 70 c6 105
-39 224 -125 329 l-34 42 21 40 c23 45 26 103 7 119 -22 19 -61 22 -93 8z"/>
</g>
</svg>
